<svg width="100" height="54" viewBox="0 0 100 54" fill="none" xmlns="http://www.w3.org/2000/svg">
<path d="M7.84957 17.5372C10.4853 14.4192 13.002 12.8583 15.3984 12.8583C16.6313 12.8583 17.6904 13.1632 18.573 13.7625C19.4636 14.3617 20.1684 15.3556 20.6899 16.7373C21.051 17.703 21.2275 19.1784 21.2275 21.1728V30.6015C21.2275 31.9926 21.3438 32.9463 21.5778 33.4358C21.7557 33.8411 22.0486 34.1528 22.4511 34.3828C22.8456 34.6062 23.5904 34.7199 24.6763 34.7199V35.5827H13.5235V34.7199H13.9969C15.044 34.7199 15.7795 34.5581 16.1967 34.2451C16.6153 33.9334 16.9095 33.4719 17.07 32.8633C17.1341 32.6239 17.1662 31.8655 17.1662 30.6041V21.5647C17.1662 19.5543 16.9015 18.1003 16.3732 17.1854C15.8343 16.2798 14.9344 15.8304 13.6747 15.8304C11.7303 15.8304 9.78057 16.8724 7.84957 18.9617V30.6041C7.84957 32.0902 7.93248 33.0158 8.11836 33.3676C8.34703 33.8358 8.66396 34.1795 9.06781 34.3962C9.47434 34.6089 10.2847 34.7226 11.5123 34.7226V35.5853H0.368961V34.7226H0.861071C2.00442 34.7226 2.78806 34.435 3.1879 33.8679C3.58239 33.2887 3.78699 32.2079 3.78699 30.6041V22.3993C3.78699 19.7576 3.72949 18.1431 3.60245 17.5613C3.48343 16.9834 3.29086 16.5902 3.03946 16.3842C2.78939 16.1742 2.44438 16.0685 2.01379 16.0685C1.56046 16.0685 1.00683 16.1916 0.370298 16.4297L-0.00012207 15.5562L6.79448 12.861H7.85225V17.5399L7.84957 17.5372Z" fill="#ED8022"/>
<path d="M33.6612 17.5586C35.3087 15.9481 36.2756 15.0292 36.5671 14.7924C37.3053 14.1785 38.1036 13.7063 38.9514 13.3706C39.8113 13.0335 40.6497 12.8596 41.4895 12.8596C42.899 12.8596 44.1172 13.2636 45.1322 14.0688C46.1512 14.866 46.8279 16.0364 47.1742 17.5586C48.8618 15.6298 50.2887 14.3631 51.4588 13.7625C52.6155 13.1633 53.8164 12.8596 55.044 12.8596C56.2716 12.8596 57.3013 13.1646 58.2347 13.7625C59.156 14.3631 59.8862 15.3516 60.4331 16.7146C60.7915 17.6469 60.968 19.1102 60.968 21.0992V30.6028C60.968 31.9832 61.0817 32.9262 61.2903 33.4372C61.4588 33.7916 61.761 34.0953 62.205 34.3454C62.6489 34.5902 63.3617 34.7213 64.3713 34.7213V35.584H53.244V34.7213H53.7161C54.6829 34.7213 55.4385 34.5327 55.98 34.1608C56.3558 33.9093 56.6286 33.4933 56.7878 32.9356C56.8559 32.6627 56.888 31.8829 56.888 30.6028V21.0992C56.888 19.3015 56.6727 18.0348 56.2248 17.2937C55.5896 16.2638 54.5652 15.7542 53.1504 15.7542C52.2772 15.7542 51.4053 15.9668 50.5294 16.3855C49.6521 16.8149 48.5944 17.6094 47.3414 18.7651L47.2946 19.0273L47.3414 20.0666V30.6015C47.3414 32.1009 47.435 33.0412 47.6008 33.4144C47.7787 33.7823 48.0983 34.0939 48.5757 34.3441C49.0477 34.5888 49.8608 34.7199 51.0121 34.7199V35.5827H39.6147V34.7199C40.8664 34.7199 41.7222 34.5714 42.1956 34.2839C42.6543 33.9963 42.9833 33.5602 43.1598 32.9864C43.2427 32.7055 43.2841 31.915 43.2841 30.6028V21.0992C43.2841 19.3015 43.0153 18.0067 42.4684 17.2255C41.749 16.2009 40.7407 15.6793 39.4489 15.6793C38.5583 15.6793 37.685 15.9093 36.8105 16.3815C35.4492 17.0878 34.4007 17.8809 33.6612 18.7651V30.6028C33.6612 32.0394 33.7709 32.9864 33.9715 33.4158C34.1721 33.8478 34.4837 34.1782 34.8781 34.3949C35.2847 34.6076 36.0977 34.7213 37.332 34.7213V35.584H26.19V34.7213C27.2197 34.7213 27.9431 34.6089 28.355 34.3949C28.7602 34.1782 29.0785 33.8344 29.2871 33.3582C29.4957 32.8754 29.604 31.9645 29.604 30.6028V22.1599C29.604 19.7335 29.5305 18.1699 29.386 17.4623C29.2684 16.9299 29.0852 16.5701 28.8404 16.3748C28.5997 16.1648 28.2627 16.0672 27.8335 16.0672C27.3721 16.0672 26.8239 16.1902 26.1887 16.4283L25.8182 15.5549L32.6021 12.8596H33.6612V17.5586Z" fill="#ED8022"/>
<path d="M76.9737 30.4022L81.8199 20.0653L80.5415 16.8123C80.1484 15.8479 79.6349 15.1871 78.9903 14.8152C78.6279 14.5852 77.9553 14.4541 76.9737 14.4006V13.5071H87.7065V14.4006C86.519 14.4541 85.6806 14.6561 85.1952 15.0279C84.8675 15.2834 84.7004 15.6954 84.7004 16.2558C84.7004 16.5742 84.7659 16.9046 84.901 17.2416L90.0133 29.926L94.7579 17.7031C95.0842 16.8377 95.254 16.1488 95.254 15.6285C95.254 15.3275 95.0949 15.0533 94.7739 14.8152C94.457 14.5665 93.8285 14.4394 92.8937 14.4006V13.5071H99.9986V14.4006C98.5691 14.6119 97.5193 15.5536 96.8493 17.2416L89.3259 36.2542H88.3177L82.6825 22.1573L76.4014 35.7767L76.9737 30.4022Z" fill="#ED8022"/>
<path fill-rule="evenodd" clip-rule="evenodd" d="M66.5658 15.1282C66.9603 8.69035 69.2831 4.02081 72.3053 0C67.9378 8.82143 67.887 16.633 73.6706 23.1765C79.8969 31.5364 82.7479 38.6177 81.0978 52.4591C81.5016 43.0451 76.0951 35.1774 70.7313 28.1537C67.9552 24.0392 66.5671 19.6974 66.5671 15.1282" fill="#6D6E70"/>
<path d="M0.616333 45.3952L2.83083 40.426H3.96616L6.18734 45.3952H4.98114L3.16381 41.0079H3.61847L1.79446 45.3952H0.616333ZM1.72358 44.3305L2.02848 43.457H4.58397L4.89689 44.3305H1.72358Z" fill="#6D6E70"/>
<path d="M7.84819 44.4722H10.5521V45.3952H6.70483V40.426H10.4598V41.349H7.84819V44.4722ZM7.7626 42.4284H10.155V43.3233H7.7626V42.4284Z" fill="#6D6E70"/>
<path d="M13.1009 45.4808C12.7037 45.4808 12.3226 45.4273 11.9589 45.3217C11.5938 45.2147 11.301 45.0769 11.079 44.907L11.4695 44.0403C11.6821 44.1914 11.9348 44.3158 12.225 44.4134C12.5165 44.5111 12.8107 44.5592 13.1089 44.5592C13.3363 44.5592 13.5195 44.5365 13.6585 44.4924C13.7976 44.4469 13.9006 44.3854 13.9675 44.3038C14.0343 44.2235 14.0664 44.1312 14.0664 44.0269C14.0664 43.8945 14.0143 43.7888 13.91 43.7112C13.8056 43.6336 13.6692 43.5694 13.4981 43.5199C13.3269 43.4704 13.1397 43.4223 12.9338 43.3781C12.7278 43.3327 12.5219 43.2778 12.3159 43.2109C12.11 43.1441 11.9215 43.0598 11.7516 42.9555C11.5818 42.8511 11.4427 42.7147 11.3371 42.5435C11.2301 42.3736 11.1779 42.1556 11.1779 41.8907C11.1779 41.6072 11.2542 41.3477 11.4093 41.1136C11.5631 40.8795 11.7944 40.6923 12.1047 40.5531C12.4149 40.414 12.804 40.3431 13.2721 40.3431C13.5837 40.3431 13.8912 40.3793 14.1948 40.4528C14.497 40.5264 14.7645 40.6361 14.9971 40.7832L14.6428 41.6567C14.4114 41.5242 14.1787 41.4253 13.9474 41.3624C13.716 41.2982 13.4887 41.2661 13.2654 41.2661C13.0421 41.2661 12.8602 41.2915 12.7185 41.3437C12.5767 41.3958 12.4751 41.4627 12.4136 41.5456C12.352 41.6286 12.3213 41.7249 12.3213 41.8332C12.3213 41.9616 12.3734 42.0646 12.4777 42.1422C12.5821 42.2198 12.7185 42.2827 12.8896 42.3308C13.0595 42.3776 13.248 42.4258 13.4539 42.4726C13.6599 42.5194 13.8658 42.5742 14.0718 42.6358C14.2777 42.6973 14.4662 42.7802 14.6361 42.8846C14.8059 42.9889 14.945 43.1253 15.0506 43.2965C15.1576 43.4664 15.2098 43.6818 15.2098 43.9426C15.2098 44.2222 15.1322 44.4776 14.9757 44.709C14.8193 44.9405 14.5866 45.1277 14.2764 45.2695C13.9661 45.4113 13.5743 45.4822 13.1022 45.4822L13.1009 45.4808Z" fill="#6D6E70"/>
<path d="M16.9536 45.3952V41.3623H15.3636V40.4247H19.6937V41.3623H18.1037V45.3952H16.9536Z" fill="#6D6E70"/>
<path d="M21.4614 45.3952H20.3114V40.426H21.4614V45.3952ZM23.803 43.358H21.3759V42.3856H23.803V43.358ZM23.7174 40.426H24.8674V45.3952H23.7174V40.426Z" fill="#6D6E70"/>
<path d="M27.189 44.4722H29.8929V45.3952H26.0457V40.426H29.8007V41.349H27.189V44.4722ZM27.1034 42.4284H29.4958V43.3233H27.1034V42.4284Z" fill="#6D6E70"/>
<path d="M31.8372 45.3952V41.3623H30.2472V40.4247H34.5772V41.3623H32.9872V45.3952H31.8372Z" fill="#6D6E70"/>
<path d="M35.1937 45.3952V40.426H36.3438V45.3952H35.1937Z" fill="#6D6E70"/>
<path d="M39.8995 45.4808C39.5158 45.4808 39.16 45.418 38.8311 45.2922C38.5021 45.1665 38.2173 44.9886 37.9752 44.7558C37.7345 44.5244 37.546 44.2516 37.4109 43.9399C37.2758 43.6283 37.209 43.2845 37.209 42.91C37.209 42.5354 37.2758 42.193 37.4109 41.88C37.546 41.5684 37.7345 41.2955 37.9792 41.0641C38.2226 40.8327 38.5075 40.6534 38.8337 40.5277C39.16 40.402 39.5171 40.3391 39.9062 40.3391C40.3368 40.3391 40.726 40.414 41.0737 40.5625C41.4213 40.711 41.7142 40.9303 41.9496 41.2193L41.2114 41.9001C41.0416 41.7061 40.8517 41.5603 40.6431 41.464C40.4344 41.3664 40.2071 41.3182 39.9611 41.3182C39.7297 41.3182 39.5157 41.3557 39.3218 41.4319C39.1279 41.5082 38.9595 41.6165 38.8177 41.7583C38.676 41.9001 38.5663 42.0686 38.4874 42.2626C38.4098 42.4565 38.3697 42.6719 38.3697 42.9086C38.3697 43.1454 38.4085 43.3607 38.4874 43.5547C38.565 43.7486 38.676 43.9172 38.8177 44.059C38.9595 44.2007 39.1279 44.3104 39.3218 44.3853C39.5157 44.4616 39.7284 44.499 39.9611 44.499C40.2071 44.499 40.4344 44.4509 40.6431 44.3532C40.8517 44.2569 41.0402 44.1085 41.2114 43.9091L41.9496 44.5913C41.7129 44.8802 41.42 45.0996 41.0737 45.2521C40.726 45.4032 40.3342 45.4795 39.8995 45.4795V45.4808Z" fill="#6D6E70"/>
<path d="M47.11 45.4808C46.7262 45.4808 46.3705 45.418 46.0415 45.2922C45.7126 45.1665 45.4277 44.9886 45.1857 44.7558C44.945 44.5244 44.7564 44.2516 44.6214 43.9399C44.4863 43.6283 44.4194 43.2845 44.4194 42.91C44.4194 42.5354 44.4863 42.193 44.6214 41.88C44.7564 41.5684 44.945 41.2955 45.1897 41.0641C45.4331 40.8327 45.7179 40.6534 46.0455 40.5277C46.3718 40.402 46.7289 40.3391 47.1167 40.3391C47.5473 40.3391 47.9364 40.414 48.2841 40.5625C48.6318 40.711 48.9247 40.9303 49.16 41.2193L48.4218 41.9001C48.252 41.7061 48.0621 41.5603 47.8535 41.464C47.6449 41.3664 47.4176 41.3182 47.1728 41.3182C46.9415 41.3182 46.7275 41.3557 46.5336 41.4319C46.3397 41.5082 46.1712 41.6165 46.0295 41.7583C45.8877 41.9001 45.7781 42.0686 45.6992 42.2626C45.6216 42.4565 45.5815 42.6719 45.5815 42.9086C45.5815 43.1454 45.6203 43.3607 45.6992 43.5547C45.7767 43.7486 45.8877 43.9172 46.0295 44.059C46.1712 44.2007 46.3397 44.3104 46.5336 44.3853C46.7275 44.4616 46.9402 44.499 47.1728 44.499C47.4189 44.499 47.6462 44.4509 47.8535 44.3532C48.0621 44.2569 48.2507 44.1085 48.4218 43.9091L49.16 44.5913C48.9233 44.8802 48.6318 45.0996 48.2841 45.2521C47.9364 45.4046 47.5446 45.4795 47.11 45.4795V45.4808Z" fill="#6D6E70"/>
<path d="M49.9357 45.3952V40.426H51.0857V44.4589H53.577V45.3965H49.9357V45.3952Z" fill="#6D6E70"/>
<path d="M54.2216 45.3952V40.426H55.3716V45.3952H54.2216Z" fill="#6D6E70"/>
<path d="M56.5498 45.3952V40.426H57.5006L60.4319 44.0041H59.9705V40.426H61.1058V45.3952H60.1617L57.2238 41.8171H57.6851V45.3952H56.5498Z" fill="#6D6E70"/>
<path d="M62.2853 45.3952V40.426H63.4353V45.3952H62.2853Z" fill="#6D6E70"/>
<path d="M66.9898 45.4808C66.606 45.4808 66.2503 45.418 65.9213 45.2922C65.5923 45.1665 65.3075 44.9886 65.0654 44.7558C64.8247 44.5244 64.6362 44.2516 64.5011 43.9399C64.3661 43.6283 64.2992 43.2845 64.2992 42.91C64.2992 42.5354 64.3661 42.193 64.5011 41.88C64.6362 41.5684 64.8247 41.2955 65.0695 41.0641C65.3128 40.8327 65.5977 40.6534 65.9253 40.5277C66.2516 40.402 66.6086 40.3391 66.9964 40.3391C67.427 40.3391 67.8162 40.414 68.1639 40.5625C68.5115 40.711 68.8044 40.9303 69.0398 41.2193L68.3016 41.9001C68.1318 41.7061 67.9419 41.5603 67.7333 41.464C67.5247 41.3664 67.2973 41.3182 67.0526 41.3182C66.8213 41.3182 66.6073 41.3557 66.4134 41.4319C66.2195 41.5082 66.051 41.6165 65.9093 41.7583C65.7675 41.9001 65.6578 42.0686 65.5789 42.2626C65.5014 42.4565 65.4613 42.6719 65.4613 42.9086C65.4613 43.1454 65.5001 43.3607 65.5789 43.5547C65.6565 43.7486 65.7675 43.9172 65.9093 44.059C66.051 44.2007 66.2195 44.3104 66.4134 44.3853C66.6073 44.4616 66.8199 44.499 67.0526 44.499C67.2987 44.499 67.526 44.4509 67.7333 44.3532C67.9419 44.2569 68.1304 44.1085 68.3016 43.9091L69.0398 44.5913C68.8031 44.8802 68.5115 45.0996 68.1639 45.2521C67.8162 45.4046 67.4244 45.4795 66.9898 45.4795V45.4808Z" fill="#6D6E70"/>
<path d="M73.3844 45.4808C73.0207 45.4808 72.6957 45.4219 72.4122 45.3029C72.1287 45.1852 71.904 45.0233 71.7382 44.82C71.5724 44.6167 71.4895 44.3826 71.4895 44.1178C71.4895 43.8717 71.5443 43.651 71.6527 43.4543C71.761 43.2577 71.9335 43.0731 72.1702 42.9006C72.4069 42.728 72.7077 42.5582 73.0715 42.3936C73.3363 42.2706 73.5449 42.1622 73.696 42.0673C73.8471 41.9723 73.9541 41.8813 74.0156 41.7944C74.0771 41.7074 74.1079 41.6178 74.1079 41.5282C74.1079 41.4052 74.0664 41.3062 73.9835 41.2299C73.9006 41.1537 73.7789 41.1162 73.6184 41.1162C73.4486 41.1162 73.3162 41.159 73.2213 41.2446C73.1263 41.3302 73.0795 41.4386 73.0795 41.571C73.0795 41.6419 73.0942 41.7115 73.1223 41.781C73.1504 41.8492 73.2052 41.9281 73.2854 42.0151C73.3657 42.1034 73.4793 42.2157 73.6264 42.3522L76.2448 44.7799L75.6417 45.4821L72.7532 42.7989C72.5874 42.6478 72.455 42.506 72.356 42.3736C72.2571 42.2411 72.1849 42.1114 72.1394 41.983C72.0939 41.8546 72.0725 41.7222 72.0725 41.5857C72.0725 41.345 72.1367 41.1309 72.2638 40.9464C72.3922 40.7618 72.5713 40.6186 72.8027 40.517C73.034 40.4153 73.3068 40.3645 73.6184 40.3645C73.9073 40.3645 74.156 40.4113 74.3673 40.5036C74.5772 40.5959 74.7431 40.727 74.8634 40.8982C74.9838 41.0681 75.0439 41.2727 75.0439 41.5081C75.0439 41.7168 74.9918 41.9067 74.8875 42.0793C74.7832 42.2518 74.6214 42.4137 74.4007 42.5662C74.1814 42.7173 73.8939 42.8712 73.5382 43.0277C73.2975 43.136 73.1062 43.2417 72.9672 43.3433C72.8281 43.445 72.7265 43.548 72.665 43.6523C72.6034 43.7566 72.5727 43.873 72.5727 44.0001C72.5727 44.1178 72.6088 44.2248 72.6823 44.3198C72.7559 44.4147 72.8589 44.4883 72.9912 44.5405C73.1236 44.5926 73.2801 44.6181 73.4593 44.6181C73.7481 44.6181 74.0129 44.5512 74.2536 44.4161C74.4943 44.281 74.6989 44.0803 74.8674 43.8128C75.0359 43.5453 75.1549 43.2203 75.2258 42.8364L76.1124 43.1133C76.0134 43.5961 75.8356 44.0148 75.5802 44.3693C75.3248 44.7237 75.0105 44.9993 74.6361 45.1932C74.2616 45.3872 73.8431 45.4848 73.3804 45.4848L73.3844 45.4808Z" fill="#6D6E70"/>
<path d="M1.26892 53.9144V48.9452H3.41922C3.86453 48.9452 4.24698 49.0174 4.56926 49.1619C4.89154 49.3063 5.13893 49.5137 5.31411 49.7825C5.4893 50.0527 5.57622 50.3737 5.57622 50.7483C5.57622 51.1228 5.4893 51.4371 5.31411 51.7073C5.13893 51.9775 4.8902 52.1835 4.56926 52.328C4.24698 52.4724 3.86453 52.5447 3.41922 52.5447H1.90679L2.41762 52.0257V53.9144H1.26758H1.26892ZM2.41896 52.1541L1.90812 51.607H3.35637C3.71074 51.607 3.97552 51.5308 4.1507 51.3796C4.32588 51.2285 4.4128 51.0171 4.4128 50.7483C4.4128 50.4794 4.32588 50.2614 4.1507 50.1089C3.97552 49.9577 3.71074 49.8815 3.35637 49.8815H1.90812L2.41896 49.3344V52.1527V52.1541Z" fill="#6D6E70"/>
<path d="M6.39331 53.9144V48.9452H7.54335V52.978H10.0347V53.9157H6.39331V53.9144Z" fill="#6D6E70"/>
<path d="M10.056 53.9144L12.2705 48.9452H13.4059L15.627 53.9144H14.4208L12.6035 49.527H13.0582L11.2342 53.9144H10.056ZM11.1633 52.8496L11.4682 51.9762H14.0237L14.3366 52.8496H11.1646H11.1633Z" fill="#6D6E70"/>
<path d="M17.7773 54C17.3801 54 16.999 53.9465 16.6353 53.8408C16.2702 53.7338 15.9774 53.5961 15.7554 53.4262L16.1458 52.5608C16.3585 52.7119 16.6112 52.8363 16.9014 52.9339C17.1929 53.0316 17.4871 53.0797 17.7853 53.0797C18.0127 53.0797 18.1959 53.057 18.3349 53.0129C18.474 52.9674 18.577 52.9059 18.6438 52.8243C18.7107 52.744 18.7428 52.6517 18.7428 52.5474C18.7428 52.415 18.6906 52.3093 18.5863 52.2317C18.482 52.1541 18.3456 52.0899 18.1745 52.0404C18.0046 51.9909 17.8161 51.9441 17.6101 51.8986C17.4042 51.8532 17.1983 51.7983 16.9923 51.7314C16.7864 51.6646 16.5978 51.5803 16.428 51.476C16.2582 51.3716 16.1191 51.2352 16.0135 51.064C15.9065 50.8941 15.8543 50.6761 15.8543 50.4112C15.8543 50.1277 15.9306 49.8682 16.0857 49.6341C16.2395 49.4 16.4708 49.2128 16.781 49.0737C17.0913 48.9345 17.4804 48.8636 17.9485 48.8636C18.2601 48.8636 18.5676 48.8998 18.8712 48.9733C19.1734 49.0469 19.4408 49.1566 19.6735 49.3037L19.3192 50.1772C19.0878 50.0447 18.8551 49.9458 18.6238 49.8829C18.3924 49.8187 18.1651 49.7866 17.9418 49.7866C17.7185 49.7866 17.5366 49.8133 17.3948 49.8642C17.2531 49.9163 17.1515 49.9832 17.09 50.0661C17.0284 50.1491 16.9977 50.2454 16.9977 50.3537C16.9977 50.4821 17.0498 50.5851 17.1541 50.6627C17.2584 50.7403 17.3948 50.8032 17.566 50.8513C17.7372 50.8995 17.9244 50.9463 18.1303 50.9931C18.3363 51.0399 18.5422 51.0948 18.7482 51.1563C18.9541 51.2178 19.1426 51.3007 19.3125 51.4051C19.4823 51.5094 19.6214 51.6458 19.727 51.8171C19.834 51.9869 19.8862 52.2023 19.8862 52.4631C19.8862 52.7427 19.8086 52.9982 19.6521 53.2296C19.4957 53.461 19.263 53.6482 18.9528 53.79C18.6425 53.9318 18.2507 54.0027 17.7786 54.0027L17.7773 54Z" fill="#6D6E70"/>
<path d="M21.6313 53.9143V49.8815H20.0413V48.9438H24.3713V49.8815H22.7813V53.9143H21.6313Z" fill="#6D6E70"/>
<path d="M24.9878 53.9144V48.9452H26.1378V53.9144H24.9878Z" fill="#6D6E70"/>
<path d="M29.6936 54C29.3098 54 28.9541 53.9371 28.6251 53.8114C28.2962 53.6857 28.0113 53.5078 27.7693 53.275C27.5286 53.0436 27.34 52.7707 27.205 52.4591C27.0699 52.1461 27.0031 51.8037 27.0031 51.4291C27.0031 51.0546 27.0699 50.7122 27.205 50.3992C27.34 50.0862 27.5286 49.8147 27.7733 49.5833C28.0167 49.3519 28.3015 49.1726 28.6292 49.0469C28.9554 48.9211 29.3125 48.8583 29.7003 48.8583C30.1309 48.8583 30.52 48.9332 30.8677 49.0817C31.2154 49.2301 31.5083 49.4495 31.7436 49.7384L31.0055 50.4206C30.8356 50.2266 30.6457 50.0808 30.4371 49.9845C30.2285 49.8882 30.0012 49.8387 29.7551 49.8387C29.5238 49.8387 29.3098 49.8762 29.1159 49.9524C28.922 50.0287 28.7535 50.137 28.6118 50.2788C28.47 50.4206 28.3604 50.5891 28.2815 50.7831C28.2039 50.977 28.1638 51.1924 28.1638 51.4291C28.1638 51.6659 28.2026 51.8812 28.2815 52.0752C28.359 52.2691 28.47 52.4377 28.6118 52.5795C28.7535 52.7212 28.922 52.8309 29.1159 52.9058C29.3098 52.9821 29.5224 53.0195 29.7551 53.0195C30.0012 53.0195 30.2285 52.9714 30.4371 52.8737C30.6457 52.7774 30.8343 52.629 31.0055 52.4297L31.7436 53.1118C31.5069 53.4007 31.2154 53.6201 30.8677 53.7726C30.52 53.9251 30.1282 54 29.6936 54Z" fill="#6D6E70"/>
<path d="M36.1593 54C35.7621 54 35.381 53.9465 35.0172 53.8408C34.6522 53.7338 34.3593 53.5961 34.1373 53.4262L34.5278 52.5608C34.7404 52.7119 34.9932 52.8363 35.2834 52.9339C35.5749 53.0316 35.8691 53.0797 36.1673 53.0797C36.3946 53.0797 36.5778 53.057 36.7169 53.0129C36.856 52.9674 36.9589 52.9059 37.0258 52.8243C37.0927 52.744 37.1248 52.6517 37.1248 52.5474C37.1248 52.415 37.0726 52.3093 36.9683 52.2317C36.864 52.1541 36.7276 52.0899 36.5564 52.0404C36.3866 51.9909 36.198 51.9441 35.9921 51.8986C35.7862 51.8532 35.5802 51.7983 35.3743 51.7314C35.1684 51.6646 34.9798 51.5803 34.81 51.476C34.6401 51.3716 34.5011 51.2352 34.3954 51.064C34.2884 50.8941 34.2363 50.6761 34.2363 50.4112C34.2363 50.1277 34.3125 49.8682 34.4676 49.6341C34.6214 49.4 34.8528 49.2128 35.163 49.0737C35.4732 48.9345 35.8624 48.8636 36.3304 48.8636C36.642 48.8636 36.9496 48.8998 37.2531 48.9733C37.5554 49.0469 37.8228 49.1566 38.0555 49.3037L37.7011 50.1772C37.4698 50.0447 37.2371 49.9458 37.0057 49.8829C36.7744 49.8187 36.5471 49.7866 36.3237 49.7866C36.1004 49.7866 35.9186 49.8133 35.7768 49.8642C35.6351 49.9163 35.5334 49.9832 35.4719 50.0661C35.4104 50.1491 35.3796 50.2454 35.3796 50.3537C35.3796 50.4821 35.4318 50.5851 35.5361 50.6627C35.6404 50.7403 35.7768 50.8032 35.948 50.8513C36.1191 50.8995 36.3064 50.9463 36.5123 50.9931C36.7182 51.0399 36.9242 51.0948 37.1301 51.1563C37.336 51.2178 37.5246 51.3007 37.6944 51.4051C37.8643 51.5094 38.0033 51.6458 38.1103 51.8171C38.2173 51.9869 38.2695 52.2023 38.2695 52.4631C38.2695 52.7427 38.1919 52.9982 38.0354 53.2296C37.879 53.461 37.6463 53.6482 37.336 53.79C37.0258 53.9318 36.634 54.0027 36.1619 54.0027L36.1593 54Z" fill="#6D6E70"/>
<path d="M41.2622 54C40.5575 54 40.0065 53.8033 39.608 53.4101C39.2109 53.0168 39.0116 52.4564 39.0116 51.7274V48.9438H40.1616V51.6846C40.1616 52.1581 40.2579 52.4992 40.4532 52.7065C40.6471 52.9152 40.9199 53.0182 41.2689 53.0182C41.6179 53.0182 41.8907 52.9138 42.0846 52.7065C42.2785 52.4978 42.3761 52.1581 42.3761 51.6846V48.9438H43.5115V51.7274C43.5115 52.4564 43.3122 53.0168 42.915 53.4101C42.5179 53.8033 41.9669 54 41.2609 54H41.2622Z" fill="#6D6E70"/>
<path d="M44.6482 53.9144V48.9452H46.7985C47.2438 48.9452 47.6263 49.0174 47.9485 49.1619C48.2708 49.3063 48.5182 49.5137 48.6934 49.7825C48.8686 50.0527 48.9555 50.3737 48.9555 50.7483C48.9555 51.1228 48.8672 51.4358 48.6934 51.7033C48.5182 51.9708 48.2695 52.1755 47.9485 52.3173C47.6263 52.459 47.2438 52.5299 46.7985 52.5299H45.2874L45.7982 52.0257V53.9144H44.6482ZM45.7982 52.1541L45.2874 51.615H46.7356C47.09 51.615 47.3548 51.5388 47.53 51.385C47.7052 51.2311 47.7921 51.0198 47.7921 50.7496C47.7921 50.4794 47.7038 50.2627 47.53 50.1102C47.3548 49.9591 47.09 49.8828 46.7356 49.8828H45.2874L45.7982 49.3358V52.1541ZM47.8068 53.9144L46.5645 52.1113H47.7921L49.0478 53.9144H47.8055H47.8068Z" fill="#6D6E70"/>
<path d="M52.2638 54C51.8707 54 51.5096 53.9371 51.182 53.8114C50.8544 53.6857 50.5669 53.5078 50.3235 53.275C50.0801 53.0423 49.8902 52.7707 49.7551 52.4591C49.6201 52.1461 49.5532 51.8037 49.5532 51.4291C49.5532 51.0546 49.6201 50.7122 49.7551 50.3992C49.8902 50.0862 50.0801 49.8147 50.3262 49.5833C50.5722 49.3519 50.8611 49.1726 51.1914 49.0469C51.523 48.9211 51.8867 48.8583 52.2839 48.8583C52.7239 48.8583 53.1197 48.9318 53.4727 49.079C53.8258 49.2261 54.1226 49.4388 54.3633 49.7184L53.6252 50.4005C53.446 50.2106 53.2494 50.0701 53.0368 49.9778C52.8241 49.8856 52.5915 49.8387 52.3414 49.8387C52.0913 49.8387 51.88 49.8762 51.6808 49.9524C51.4815 50.0287 51.3104 50.137 51.166 50.2788C51.0215 50.4206 50.9105 50.5891 50.8316 50.7831C50.7541 50.977 50.714 51.1924 50.714 51.4291C50.714 51.6659 50.7527 51.8746 50.8316 52.0685C50.9092 52.2625 51.0215 52.4323 51.166 52.5755C51.3104 52.7199 51.4802 52.8296 51.6768 52.9058C51.8734 52.9821 52.09 53.0195 52.3267 53.0195C52.5634 53.0195 52.7747 52.9834 52.99 52.9098C53.2053 52.8363 53.4152 52.7119 53.6185 52.5367L54.2711 53.3673C54.0009 53.5706 53.688 53.7271 53.331 53.8355C52.9739 53.9438 52.6182 53.9987 52.2625 53.9987L52.2638 54ZM53.2213 53.2188V51.3516H54.2711V53.3673L53.2213 53.2188Z" fill="#6D6E70"/>
<path d="M56.4789 52.9914H59.1829V53.9144H55.3356V48.9452H59.0906V49.8681H56.4789V52.9914ZM56.3933 50.9476H58.7857V51.8424H56.3933V50.9476Z" fill="#6D6E70"/>
<path d="M60.0989 53.9144V48.9452H62.2492C62.6945 48.9452 63.0769 49.0174 63.3992 49.1619C63.7215 49.3063 63.9689 49.5137 64.1441 49.7825C64.3193 50.0527 64.4062 50.3737 64.4062 50.7483C64.4062 51.1228 64.3179 51.4358 64.1441 51.7033C63.9689 51.9708 63.7202 52.1755 63.3992 52.3173C63.0769 52.459 62.6945 52.5299 62.2492 52.5299H60.7381L61.2489 52.0257V53.9144H60.0989ZM61.2489 52.1541L60.7381 51.615H62.1863C62.5407 51.615 62.8055 51.5388 62.9807 51.385C63.1558 51.2311 63.2428 51.0198 63.2428 50.7496C63.2428 50.4794 63.1545 50.2627 62.9807 50.1102C62.8055 49.9591 62.5407 49.8828 62.1863 49.8828H60.7381L61.2489 49.3358V52.1541ZM63.2575 53.9144L62.0152 52.1113H63.2428L64.4984 53.9144H63.2561H63.2575Z" fill="#6D6E70"/>
<path d="M66.4789 53.9144V51.8839L66.741 52.5794L64.5546 48.9452H65.7755L67.4511 51.7354H66.749L68.4313 48.9452H69.5599L67.3735 52.5794L67.6289 51.8839V53.9144H66.4789Z" fill="#6D6E70"/>
</svg>
