<svg width="100" height="54" viewBox="0 0 100 54" fill="none" xmlns="http://www.w3.org/2000/svg">
<path d="M7.84945 17.5363C10.4852 14.4184 13.0019 12.8574 15.3983 12.8574C16.6312 12.8574 17.6903 13.1624 18.5729 13.7616C19.4635 14.3609 20.1683 15.3547 20.6898 16.7364C21.0508 17.7022 21.2274 19.1776 21.2274 21.1719V30.6006C21.2274 31.9917 21.3437 32.9454 21.5777 33.435C21.7556 33.8403 22.0484 34.1519 22.4509 34.382C22.8454 34.6054 23.5903 34.7191 24.6761 34.7191V35.5818H13.5234V34.7191H13.9968C15.0439 34.7191 15.7794 34.5572 16.1966 34.2442C16.6152 33.9325 16.9094 33.4711 17.0698 32.8625C17.134 32.623 17.1661 31.8646 17.1661 30.6033V21.5638C17.1661 19.5534 16.9013 18.0995 16.3731 17.1845C15.8342 16.279 14.9342 15.8296 13.6745 15.8296C11.7302 15.8296 9.78045 16.8715 7.84945 18.9609V30.6033C7.84945 32.0893 7.93236 33.015 8.11824 33.3668C8.34691 33.8349 8.66384 34.1787 9.06769 34.3954C9.47421 34.608 10.2846 34.7217 11.5122 34.7217V35.5845H0.368839V34.7217H0.860949C2.0043 34.7217 2.78793 34.4342 3.18777 33.867C3.58226 33.2878 3.78686 32.2071 3.78686 30.6033V22.3985C3.78686 19.7567 3.72936 18.1423 3.60232 17.5604C3.48331 16.9826 3.29074 16.5893 3.03934 16.3833C2.78927 16.1733 2.44426 16.0676 2.01366 16.0676C1.56033 16.0676 1.00671 16.1907 0.370176 16.4288L-0.000244141 15.5553L6.79435 12.8601H7.85212V17.539L7.84945 17.5363Z" fill="white"/>
<path d="M33.6614 17.5583C35.3089 15.9479 36.2757 15.029 36.5672 14.7922C37.3054 14.1782 38.1037 13.7061 38.9516 13.3703C39.8114 13.0333 40.6499 12.8594 41.4897 12.8594C42.8991 12.8594 44.1174 13.2633 45.1323 14.0686C46.1513 14.8658 46.828 16.0362 47.1743 17.5583C48.862 15.6295 50.2888 14.3628 51.4589 13.7623C52.6156 13.163 53.8165 12.8594 55.0441 12.8594C56.2717 12.8594 57.3014 13.1643 58.2348 13.7623C59.1561 14.3628 59.8863 15.3513 60.4332 16.7143C60.7916 17.6466 60.9681 19.11 60.9681 21.099V30.6026C60.9681 31.983 61.0818 32.926 61.2904 33.4369C61.4589 33.7914 61.7611 34.095 62.2051 34.3451C62.6491 34.5899 63.3618 34.721 64.3714 34.721V35.5838H53.2441V34.721H53.7162C54.683 34.721 55.4386 34.5324 55.9802 34.1606C56.3559 33.9091 56.6287 33.4931 56.7879 32.9353C56.8561 32.6625 56.8882 31.8826 56.8882 30.6026V21.099C56.8882 19.3012 56.6729 18.0345 56.2249 17.2935C55.5897 16.2636 54.5654 15.7539 53.1505 15.7539C52.2773 15.7539 51.4054 15.9666 50.5295 16.3853C49.6523 16.8146 48.5945 17.6092 47.3415 18.7649L47.2947 19.027L47.3415 20.0663V30.6012C47.3415 32.1007 47.4351 33.041 47.6009 33.4142C47.7788 33.782 48.0984 34.0937 48.5758 34.3438C49.0478 34.5886 49.8609 34.7197 51.0123 34.7197V35.5824H39.6148V34.7197C40.8665 34.7197 41.7223 34.5712 42.1957 34.2836C42.6544 33.996 42.9834 33.56 43.1599 32.9861C43.2428 32.7053 43.2843 31.9147 43.2843 30.6026V21.099C43.2843 19.3012 43.0155 18.0064 42.4685 17.2253C41.7491 16.2007 40.7408 15.679 39.449 15.679C38.5584 15.679 37.6852 15.9091 36.8106 16.3813C35.4493 17.0875 34.4009 17.8807 33.6614 18.7649V30.6026C33.6614 32.0391 33.771 32.9861 33.9716 33.4155C34.1722 33.8476 34.4838 34.1779 34.8783 34.3946C35.2848 34.6073 36.0978 34.721 37.3321 34.721V35.5838H26.1901V34.721C27.2198 34.721 27.9433 34.6087 28.3551 34.3946C28.7603 34.1779 29.0786 33.8342 29.2872 33.358C29.4958 32.8751 29.6041 31.9642 29.6041 30.6026V22.1597C29.6041 19.7333 29.5306 18.1696 29.3862 17.462C29.2685 16.9297 29.0853 16.5699 28.8406 16.3746C28.5999 16.1646 28.2629 16.0669 27.8336 16.0669C27.3722 16.0669 26.824 16.19 26.1888 16.4281L25.8184 15.5546L32.6023 12.8594H33.6614V17.5583Z" fill="white"/>
<path d="M76.9737 30.403L81.8199 20.066L80.5415 16.813C80.1484 15.8486 79.6349 15.1878 78.9903 14.816C78.6279 14.5859 77.9553 14.4548 76.9737 14.4013V13.5078H87.7065V14.4013C86.519 14.4548 85.6806 14.6568 85.1952 15.0287C84.8675 15.2841 84.7004 15.6961 84.7004 16.2566C84.7004 16.5749 84.7659 16.9053 84.901 17.2424L90.0133 29.9268L94.7579 17.7038C95.0842 16.8384 95.254 16.1496 95.254 15.6292C95.254 15.3283 95.0949 15.0541 94.7739 14.816C94.457 14.5672 93.8285 14.4401 92.8937 14.4013V13.5078H99.9986V14.4013C98.5691 14.6127 97.5193 15.5543 96.8493 17.2424L89.3259 36.2549H88.3177L82.6825 22.158L76.4014 35.7774L76.9737 30.403Z" fill="white"/>
<path fill-rule="evenodd" clip-rule="evenodd" d="M66.5659 15.1282C66.9604 8.69035 69.2832 4.02081 72.3054 0C67.9379 8.82143 67.8871 16.633 73.6708 23.1765C79.897 31.5364 82.7481 38.6177 81.0979 52.4591C81.5017 43.0451 76.0952 35.1774 70.7315 28.1537C67.9553 24.0392 66.5673 19.6974 66.5673 15.1282" fill="white"/>
<path d="M0.616455 45.3969L2.83095 40.4277H3.96628L6.18746 45.3969H4.98126L3.16393 41.0096H3.61859L1.79458 45.3969H0.616455ZM1.7237 44.3322L2.0286 43.4587H4.58409L4.89701 44.3322H1.7237Z" fill="white"/>
<path d="M7.84843 44.474H10.5524V45.3969H6.70508V40.4277H10.4601V41.3507H7.84843V44.474ZM7.76285 42.4301H10.1552V43.325H7.76285V42.4301Z" fill="white"/>
<path d="M13.101 45.4814C12.7039 45.4814 12.3227 45.4279 11.959 45.3223C11.5939 45.2153 11.3011 45.0775 11.0791 44.9076L11.4696 44.0409C11.6822 44.192 11.9349 44.3164 12.2251 44.4141C12.5167 44.5117 12.8108 44.5598 13.1091 44.5598C13.3364 44.5598 13.5196 44.5371 13.6587 44.493C13.7977 44.4475 13.9007 44.386 13.9676 44.3044C14.0344 44.2241 14.0665 44.1318 14.0665 44.0275C14.0665 43.8951 14.0144 43.7894 13.9101 43.7118C13.8058 43.6342 13.6694 43.57 13.4982 43.5205C13.327 43.471 13.1398 43.4229 12.9339 43.3788C12.7279 43.3333 12.522 43.2784 12.3161 43.2116C12.1101 43.1447 11.9216 43.0604 11.7517 42.9561C11.5819 42.8517 11.4428 42.7153 11.3372 42.5441C11.2302 42.3742 11.1781 42.1562 11.1781 41.8913C11.1781 41.6078 11.2543 41.3483 11.4094 41.1142C11.5632 40.8801 11.7945 40.6929 12.1048 40.5538C12.415 40.4146 12.8042 40.3438 13.2722 40.3438C13.5838 40.3438 13.8914 40.3799 14.1949 40.4534C14.4971 40.527 14.7646 40.6367 14.9973 40.7838L14.6429 41.6573C14.4115 41.5248 14.1789 41.4259 13.9475 41.363C13.7162 41.2988 13.4888 41.2667 13.2655 41.2667C13.0422 41.2667 12.8603 41.2921 12.7186 41.3443C12.5768 41.3964 12.4752 41.4633 12.4137 41.5462C12.3522 41.6292 12.3214 41.7255 12.3214 41.8338C12.3214 41.9622 12.3736 42.0652 12.4779 42.1428C12.5822 42.2204 12.7186 42.2833 12.8897 42.3314C13.0596 42.3782 13.2481 42.4264 13.4541 42.4732C13.66 42.52 13.8659 42.5749 14.0719 42.6364C14.2778 42.6979 14.4664 42.7808 14.6362 42.8852C14.806 42.9895 14.9451 43.1259 15.0508 43.2972C15.1577 43.467 15.2099 43.6824 15.2099 43.9432C15.2099 44.2228 15.1323 44.4783 14.9759 44.7097C14.8194 44.9411 14.5867 45.1283 14.2765 45.2701C13.9662 45.4119 13.5744 45.4828 13.1024 45.4828L13.101 45.4814Z" fill="white"/>
<path d="M16.9538 45.3963V41.3634H15.3638V40.4258H19.6938V41.3634H18.1038V45.3963H16.9538Z" fill="white"/>
<path d="M21.4616 45.3969H20.3115V40.4277H21.4616V45.3969ZM23.8031 43.3597H21.376V42.3873H23.8031V43.3597ZM23.7175 40.4277H24.8676V45.3969H23.7175V40.4277Z" fill="white"/>
<path d="M27.189 44.474H29.8929V45.3969H26.0457V40.4277H29.8007V41.3507H27.189V44.474ZM27.1034 42.4301H29.4958V43.325H27.1034V42.4301Z" fill="white"/>
<path d="M31.8373 45.3963V41.3634H30.2473V40.4258H34.5773V41.3634H32.9874V45.3963H31.8373Z" fill="white"/>
<path d="M35.1938 45.3969V40.4277H36.3439V45.3969H35.1938Z" fill="white"/>
<path d="M39.8998 45.4816C39.516 45.4816 39.1603 45.4187 38.8313 45.293C38.5024 45.1672 38.2175 44.9893 37.9755 44.7566C37.7348 44.5252 37.5462 44.2523 37.4112 43.9406C37.2761 43.629 37.2092 43.2852 37.2092 42.9107C37.2092 42.5362 37.2761 42.1938 37.4112 41.8808C37.5462 41.5691 37.7348 41.2962 37.9795 41.0648C38.2229 40.8334 38.5077 40.6542 38.834 40.5284C39.1603 40.4027 39.5173 40.3398 39.9065 40.3398C40.3371 40.3398 40.7262 40.4148 41.0739 40.5632C41.4216 40.7117 41.7144 40.9311 41.9498 41.22L41.2116 41.9008C41.0418 41.7069 40.8519 41.5611 40.6433 41.4648C40.4347 41.3671 40.2074 41.319 39.9613 41.319C39.73 41.319 39.516 41.3564 39.3221 41.4327C39.1282 41.5089 38.9597 41.6172 38.8179 41.759C38.6762 41.9008 38.5665 42.0694 38.4876 42.2633C38.4101 42.4573 38.37 42.6726 38.37 42.9094C38.37 43.1461 38.4087 43.3615 38.4876 43.5554C38.5652 43.7494 38.6762 43.9179 38.8179 44.0597C38.9597 44.2015 39.1282 44.3112 39.3221 44.3861C39.516 44.4623 39.7286 44.4998 39.9613 44.4998C40.2074 44.4998 40.4347 44.4516 40.6433 44.354C40.8519 44.2577 41.0405 44.1092 41.2116 43.9099L41.9498 44.5921C41.7131 44.881 41.4202 45.1003 41.0739 45.2528C40.7262 45.404 40.3344 45.4802 39.8998 45.4802V45.4816Z" fill="white"/>
<path d="M47.1102 45.4816C46.7264 45.4816 46.3707 45.4187 46.0418 45.293C45.7128 45.1672 45.428 44.9893 45.1859 44.7566C44.9452 44.5252 44.7567 44.2523 44.6216 43.9406C44.4865 43.629 44.4197 43.2852 44.4197 42.9107C44.4197 42.5362 44.4865 42.1938 44.6216 41.8808C44.7567 41.5691 44.9452 41.2962 45.1899 41.0648C45.4333 40.8334 45.7182 40.6542 46.0458 40.5284C46.3721 40.4027 46.7291 40.3398 47.1169 40.3398C47.5475 40.3398 47.9367 40.4148 48.2843 40.5632C48.632 40.7117 48.9249 40.9311 49.1603 41.22L48.4221 41.9008C48.2523 41.7069 48.0624 41.5611 47.8538 41.4648C47.6451 41.3671 47.4178 41.319 47.1731 41.319C46.9417 41.319 46.7278 41.3564 46.5339 41.4327C46.34 41.5089 46.1715 41.6172 46.0297 41.759C45.888 41.9008 45.7783 42.0694 45.6994 42.2633C45.6219 42.4573 45.5818 42.6726 45.5818 42.9094C45.5818 43.1461 45.6205 43.3615 45.6994 43.5554C45.777 43.7494 45.888 43.9179 46.0297 44.0597C46.1715 44.2015 46.34 44.3112 46.5339 44.3861C46.7278 44.4623 46.9404 44.4998 47.1731 44.4998C47.4191 44.4998 47.6465 44.4516 47.8538 44.354C48.0624 44.2577 48.2509 44.1092 48.4221 43.9099L49.1603 44.5921C48.9236 44.881 48.632 45.1003 48.2843 45.2528C47.9367 45.4053 47.5448 45.4802 47.1102 45.4802V45.4816Z" fill="white"/>
<path d="M49.9358 45.3969V40.4277H51.0858V44.4606H53.5771V45.3982H49.9358V45.3969Z" fill="white"/>
<path d="M54.2217 45.3969V40.4277H55.3717V45.3969H54.2217Z" fill="white"/>
<path d="M56.5498 45.3969V40.4277H57.5006L60.4319 44.0058H59.9705V40.4277H61.1058V45.3969H60.1617L57.2238 41.8188H57.6851V45.3969H56.5498Z" fill="white"/>
<path d="M62.2854 45.3969V40.4277H63.4354V45.3969H62.2854Z" fill="white"/>
<path d="M66.9899 45.4816C66.6061 45.4816 66.2504 45.4187 65.9214 45.293C65.5924 45.1672 65.3076 44.9893 65.0656 44.7566C64.8249 44.5252 64.6363 44.2523 64.5012 43.9406C64.3662 43.629 64.2993 43.2852 64.2993 42.9107C64.2993 42.5362 64.3662 42.1938 64.5012 41.8808C64.6363 41.5691 64.8249 41.2962 65.0696 41.0648C65.313 40.8334 65.5978 40.6542 65.9254 40.5284C66.2517 40.4027 66.6088 40.3398 66.9966 40.3398C67.4272 40.3398 67.8163 40.4148 68.164 40.5632C68.5117 40.7117 68.8045 40.9311 69.0399 41.22L68.3017 41.9008C68.1319 41.7069 67.942 41.5611 67.7334 41.4648C67.5248 41.3671 67.2974 41.319 67.0527 41.319C66.8214 41.319 66.6074 41.3564 66.4135 41.4327C66.2196 41.5089 66.0511 41.6172 65.9094 41.759C65.7676 41.9008 65.658 42.0694 65.5791 42.2633C65.5015 42.4573 65.4614 42.6726 65.4614 42.9094C65.4614 43.1461 65.5002 43.3615 65.5791 43.5554C65.6566 43.7494 65.7676 43.9179 65.9094 44.0597C66.0511 44.2015 66.2196 44.3112 66.4135 44.3861C66.6074 44.4623 66.82 44.4998 67.0527 44.4998C67.2988 44.4998 67.5261 44.4516 67.7334 44.354C67.942 44.2577 68.1306 44.1092 68.3017 43.9099L69.0399 44.5921C68.8032 44.881 68.5117 45.1003 68.164 45.2528C67.8163 45.4053 67.4245 45.4802 66.9899 45.4802V45.4816Z" fill="white"/>
<path d="M73.3846 45.4815C73.0209 45.4815 72.696 45.4227 72.4125 45.3036C72.129 45.1859 71.9043 45.0241 71.7385 44.8208C71.5727 44.6174 71.4897 44.3834 71.4897 44.1185C71.4897 43.8724 71.5446 43.6517 71.6529 43.4551C71.7612 43.2585 71.9337 43.0739 72.1704 42.9013C72.4071 42.7288 72.708 42.5589 73.0717 42.3944C73.3365 42.2713 73.5451 42.163 73.6962 42.068C73.8473 41.973 73.9543 41.8821 74.0158 41.7951C74.0773 41.7082 74.1081 41.6186 74.1081 41.5289C74.1081 41.4059 74.0666 41.3069 73.9837 41.2307C73.9008 41.1544 73.7791 41.117 73.6187 41.117C73.4488 41.117 73.3164 41.1598 73.2215 41.2454C73.1265 41.331 73.0797 41.4393 73.0797 41.5717C73.0797 41.6426 73.0945 41.7122 73.1225 41.7817C73.1506 41.85 73.2054 41.9289 73.2857 42.0158C73.3659 42.1041 73.4796 42.2165 73.6267 42.3529L76.245 44.7806L75.6419 45.4829L72.7535 42.7997C72.5876 42.6485 72.4553 42.5067 72.3563 42.3743C72.2573 42.2419 72.1851 42.1121 72.1397 41.9837C72.0942 41.8553 72.0728 41.7229 72.0728 41.5865C72.0728 41.3457 72.137 41.1317 72.264 40.9471C72.3924 40.7625 72.5716 40.6194 72.8029 40.5177C73.0343 40.4161 73.3071 40.3652 73.6187 40.3652C73.9075 40.3652 74.1562 40.4121 74.3675 40.5043C74.5775 40.5966 74.7433 40.7277 74.8636 40.8989C74.984 41.0688 75.0442 41.2735 75.0442 41.5089C75.0442 41.7175 74.992 41.9075 74.8877 42.08C74.7834 42.2526 74.6216 42.4144 74.401 42.5669C74.1816 42.7181 73.8941 42.8719 73.5384 43.0284C73.2977 43.1367 73.1065 43.2424 72.9674 43.3441C72.8283 43.4457 72.7267 43.5487 72.6652 43.653C72.6037 43.7574 72.5729 43.8737 72.5729 44.0008C72.5729 44.1185 72.609 44.2255 72.6826 44.3205C72.7561 44.4155 72.8591 44.489 72.9915 44.5412C73.1239 44.5934 73.2803 44.6188 73.4595 44.6188C73.7484 44.6188 74.0132 44.5519 74.2539 44.4168C74.4946 44.2817 74.6992 44.0811 74.8677 43.8136C75.0362 43.546 75.1552 43.221 75.226 42.8371L76.1126 43.114C76.0137 43.5969 75.8358 44.0155 75.5804 44.37C75.325 44.7245 75.0107 45 74.6363 45.1939C74.2619 45.3879 73.8433 45.4855 73.3806 45.4855L73.3846 45.4815Z" fill="white"/>
<path d="M1.26892 53.9145V48.9453H3.41922C3.86453 48.9453 4.24698 49.0175 4.56926 49.162C4.89154 49.3065 5.13893 49.5138 5.31411 49.7826C5.48929 50.0528 5.57622 50.3739 5.57622 50.7484C5.57622 51.1229 5.48929 51.4372 5.31411 51.7074C5.13893 51.9776 4.8902 52.1836 4.56926 52.3281C4.24698 52.4725 3.86453 52.5448 3.41922 52.5448H1.90679L2.41762 52.0258V53.9145H1.26758H1.26892ZM2.41896 52.1542L1.90812 51.6071H3.35637C3.71074 51.6071 3.97552 51.5309 4.1507 51.3797C4.32588 51.2286 4.4128 51.0172 4.4128 50.7484C4.4128 50.4795 4.32588 50.2615 4.1507 50.109C3.97552 49.9579 3.71074 49.8816 3.35637 49.8816H1.90812L2.41896 49.3345V52.1529V52.1542Z" fill="white"/>
<path d="M6.39331 53.9145V48.9453H7.54335V52.9782H10.0347V53.9158H6.39331V53.9145Z" fill="white"/>
<path d="M10.0562 53.9145L12.2706 48.9453H13.406L15.6272 53.9145H14.421L12.6036 49.5272H13.0583L11.2343 53.9145H10.0562ZM11.1634 52.8497L11.4683 51.9763H14.0238L14.3367 52.8497H11.1647H11.1634Z" fill="white"/>
<path d="M17.7775 54.0016C17.3804 54.0016 16.9993 53.9481 16.6355 53.8424C16.2705 53.7354 15.9776 53.5976 15.7556 53.4278L16.1461 52.5623C16.3587 52.7135 16.6115 52.8379 16.9016 52.9355C17.1932 53.0332 17.4874 53.0813 17.7856 53.0813C18.0129 53.0813 18.1961 53.0586 18.3352 53.0144C18.4743 52.969 18.5772 52.9074 18.6441 52.8259C18.7109 52.7456 18.743 52.6533 18.743 52.549C18.743 52.4165 18.6909 52.3109 18.5866 52.2333C18.4823 52.1557 18.3459 52.0915 18.1747 52.042C18.0049 51.9925 17.8163 51.9457 17.6104 51.9002C17.4045 51.8548 17.1985 51.7999 16.9926 51.733C16.7866 51.6662 16.5981 51.5819 16.4283 51.4776C16.2584 51.3732 16.1193 51.2368 16.0137 51.0656C15.9067 50.8957 15.8546 50.6777 15.8546 50.4128C15.8546 50.1293 15.9308 49.8698 16.0859 49.6357C16.2397 49.4016 16.471 49.2143 16.7813 49.0752C17.0915 48.9361 17.4807 48.8652 17.9487 48.8652C18.2603 48.8652 18.5679 48.9014 18.8714 48.9749C19.1736 49.0485 19.4411 49.1582 19.6738 49.3053L19.3194 50.1788C19.0881 50.0463 18.8554 49.9473 18.624 49.8845C18.3927 49.8203 18.1653 49.7882 17.942 49.7882C17.7187 49.7882 17.5368 49.8149 17.3951 49.8658C17.2533 49.9179 17.1517 49.9848 17.0902 50.0677C17.0287 50.1507 16.9979 50.247 16.9979 50.3553C16.9979 50.4837 17.0501 50.5867 17.1544 50.6643C17.2587 50.7419 17.3951 50.8047 17.5663 50.8529C17.7374 50.9011 17.9246 50.9479 18.1306 50.9947C18.3365 51.0415 18.5425 51.0963 18.7484 51.1579C18.9543 51.2194 19.1429 51.3023 19.3127 51.4067C19.4825 51.511 19.6216 51.6474 19.7273 51.8186C19.8342 51.9885 19.8864 52.2039 19.8864 52.4647C19.8864 52.7443 19.8088 52.9997 19.6524 53.2311C19.4959 53.4625 19.2632 53.6498 18.953 53.7916C18.6428 53.9334 18.2509 54.0043 17.7789 54.0043L17.7775 54.0016Z" fill="white"/>
<path d="M21.6315 53.9158V49.883H20.0415V48.9453H24.3715V49.883H22.7815V53.9158H21.6315Z" fill="white"/>
<path d="M24.988 53.9145V48.9453H26.1381V53.9145H24.988Z" fill="white"/>
<path d="M29.6937 54.0011C29.3099 54.0011 28.9542 53.9382 28.6253 53.8125C28.2963 53.6868 28.0115 53.5089 27.7694 53.2761C27.5287 53.0447 27.3402 52.7718 27.2051 52.4602C27.07 52.1472 27.0032 51.8048 27.0032 51.4302C27.0032 51.0557 27.07 50.7133 27.2051 50.4003C27.3402 50.0873 27.5287 49.8158 27.7734 49.5844C28.0168 49.3529 28.3016 49.1737 28.6293 49.048C28.9556 48.9222 29.3126 48.8594 29.7004 48.8594C30.131 48.8594 30.5202 48.9343 30.8678 49.0828C31.2155 49.2312 31.5084 49.4506 31.7437 49.7395L31.0056 50.4217C30.8357 50.2277 30.6459 50.0819 30.4372 49.9856C30.2286 49.8893 30.0013 49.8398 29.7552 49.8398C29.5239 49.8398 29.3099 49.8773 29.116 49.9535C28.9221 50.0298 28.7536 50.1381 28.6119 50.2799C28.4701 50.4217 28.3605 50.5902 28.2816 50.7842C28.204 50.9781 28.1639 51.1935 28.1639 51.4302C28.1639 51.667 28.2027 51.8823 28.2816 52.0763C28.3592 52.2702 28.4701 52.4388 28.6119 52.5806C28.7536 52.7223 28.9221 52.832 29.116 52.9069C29.3099 52.9832 29.5226 53.0206 29.7552 53.0206C30.0013 53.0206 30.2286 52.9725 30.4372 52.8748C30.6459 52.7785 30.8344 52.6301 31.0056 52.4308L31.7437 53.1129C31.5071 53.4018 31.2155 53.6212 30.8678 53.7737C30.5202 53.9262 30.1283 54.0011 29.6937 54.0011Z" fill="white"/>
<path d="M36.1594 54.0016C35.7622 54.0016 35.3811 53.9481 35.0174 53.8424C34.6523 53.7354 34.3594 53.5976 34.1375 53.4278L34.5279 52.5623C34.7406 52.7135 34.9933 52.8379 35.2835 52.9355C35.575 53.0332 35.8692 53.0813 36.1674 53.0813C36.3947 53.0813 36.5779 53.0586 36.717 53.0144C36.8561 52.969 36.9591 52.9074 37.0259 52.8259C37.0928 52.7456 37.1249 52.6533 37.1249 52.549C37.1249 52.4165 37.0727 52.3109 36.9684 52.2333C36.8641 52.1557 36.7277 52.0915 36.5565 52.042C36.3867 51.9925 36.1982 51.9457 35.9922 51.9002C35.7863 51.8548 35.5804 51.7999 35.3744 51.733C35.1685 51.6662 34.9799 51.5819 34.8101 51.4776C34.6403 51.3732 34.5012 51.2368 34.3955 51.0656C34.2886 50.8957 34.2364 50.6777 34.2364 50.4128C34.2364 50.1293 34.3126 49.8698 34.4678 49.6357C34.6215 49.4016 34.8529 49.2143 35.1631 49.0752C35.4734 48.9361 35.8625 48.8652 36.3306 48.8652C36.6421 48.8652 36.9497 48.9014 37.2533 48.9749C37.5555 49.0485 37.8229 49.1582 38.0556 49.3053L37.7012 50.1788C37.4699 50.0463 37.2372 49.9473 37.0059 49.8845C36.7745 49.8203 36.5472 49.7882 36.3239 49.7882C36.1005 49.7882 35.9187 49.8149 35.7769 49.8658C35.6352 49.9179 35.5335 49.9848 35.472 50.0677C35.4105 50.1507 35.3798 50.247 35.3798 50.3553C35.3798 50.4837 35.4319 50.5867 35.5362 50.6643C35.6405 50.7419 35.7769 50.8047 35.9481 50.8529C36.1193 50.9011 36.3065 50.9479 36.5124 50.9947C36.7184 51.0415 36.9243 51.0963 37.1302 51.1579C37.3362 51.2194 37.5247 51.3023 37.6946 51.4067C37.8644 51.511 38.0035 51.6474 38.1104 51.8186C38.2174 51.9885 38.2696 52.2039 38.2696 52.4647C38.2696 52.7443 38.192 52.9997 38.0356 53.2311C37.8791 53.4625 37.6464 53.6498 37.3362 53.7916C37.0259 53.9334 36.6341 54.0043 36.1621 54.0043L36.1594 54.0016Z" fill="white"/>
<path d="M41.2623 54.0014C40.5576 54.0014 40.0066 53.8048 39.6081 53.4115C39.211 53.0183 39.0117 52.4578 39.0117 51.7288V48.9453H40.1618V51.686C40.1618 52.1595 40.258 52.5006 40.4533 52.708C40.6472 52.9166 40.92 53.0196 41.269 53.0196C41.618 53.0196 41.8908 52.9153 42.0847 52.708C42.2786 52.4993 42.3763 52.1595 42.3763 51.686V48.9453H43.5116V51.7288C43.5116 52.4578 43.3123 53.0183 42.9152 53.4115C42.518 53.8048 41.9671 54.0014 41.261 54.0014H41.2623Z" fill="white"/>
<path d="M44.6482 53.9145V48.9453H46.7985C47.2438 48.9453 47.6263 49.0175 47.9485 49.162C48.2708 49.3065 48.5182 49.5138 48.6934 49.7826C48.8686 50.0528 48.9555 50.3739 48.9555 50.7484C48.9555 51.1229 48.8672 51.4359 48.6934 51.7034C48.5182 51.9709 48.2695 52.1756 47.9485 52.3174C47.6263 52.4592 47.2438 52.5301 46.7985 52.5301H45.2874L45.7982 52.0258V53.9145H44.6482ZM45.7982 52.1542L45.2874 51.6151H46.7356C47.09 51.6151 47.3548 51.5389 47.53 51.3851C47.7052 51.2313 47.7921 51.0199 47.7921 50.7497C47.7921 50.4795 47.7038 50.2628 47.53 50.1104C47.3548 49.9592 47.09 49.883 46.7356 49.883H45.2874L45.7982 49.3359V52.1542ZM47.8068 53.9145L46.5645 52.1114H47.7921L49.0478 53.9145H47.8055H47.8068Z" fill="white"/>
<path d="M52.2638 54.0011C51.8707 54.0011 51.5096 53.9382 51.182 53.8125C50.8544 53.6868 50.5669 53.5089 50.3235 53.2761C50.0801 53.0434 49.8902 52.7718 49.7551 52.4602C49.6201 52.1472 49.5532 51.8048 49.5532 51.4302C49.5532 51.0557 49.6201 50.7133 49.7551 50.4003C49.8902 50.0873 50.0801 49.8158 50.3262 49.5844C50.5722 49.3529 50.8611 49.1737 51.1914 49.048C51.523 48.9222 51.8867 48.8594 52.2839 48.8594C52.7239 48.8594 53.1197 48.9329 53.4727 49.0801C53.8258 49.2272 54.1226 49.4399 54.3633 49.7195L53.6252 50.4016C53.446 50.2117 53.2494 50.0712 53.0368 49.9789C52.8241 49.8867 52.5915 49.8398 52.3414 49.8398C52.0913 49.8398 51.88 49.8773 51.6808 49.9535C51.4815 50.0298 51.3104 50.1381 51.166 50.2799C51.0215 50.4217 50.9105 50.5902 50.8316 50.7842C50.7541 50.9781 50.714 51.1935 50.714 51.4302C50.714 51.667 50.7527 51.8756 50.8316 52.0696C50.9092 52.2636 51.0215 52.4334 51.166 52.5765C51.3104 52.721 51.4802 52.8307 51.6768 52.9069C51.8734 52.9832 52.09 53.0206 52.3267 53.0206C52.5634 53.0206 52.7747 52.9845 52.99 52.9109C53.2053 52.8374 53.4152 52.713 53.6185 52.5378L54.2711 53.3684C54.0009 53.5717 53.688 53.7282 53.331 53.8366C52.9739 53.9449 52.6182 53.9998 52.2625 53.9998L52.2638 54.0011ZM53.2213 53.2199V51.3527H54.2711V53.3684L53.2213 53.2199Z" fill="white"/>
<path d="M56.479 52.9915H59.183V53.9145H55.3357V48.9453H59.0907V49.8683H56.479V52.9915ZM56.3935 50.9477H58.7858V51.8425H56.3935V50.9477Z" fill="white"/>
<path d="M60.0989 53.9145V48.9453H62.2492C62.6945 48.9453 63.0769 49.0175 63.3992 49.162C63.7215 49.3065 63.9689 49.5138 64.1441 49.7826C64.3193 50.0528 64.4062 50.3739 64.4062 50.7484C64.4062 51.1229 64.3179 51.4359 64.1441 51.7034C63.9689 51.9709 63.7202 52.1756 63.3992 52.3174C63.0769 52.4592 62.6945 52.5301 62.2492 52.5301H60.7381L61.2489 52.0258V53.9145H60.0989ZM61.2489 52.1542L60.7381 51.6151H62.1863C62.5407 51.6151 62.8055 51.5389 62.9807 51.3851C63.1558 51.2313 63.2428 51.0199 63.2428 50.7497C63.2428 50.4795 63.1545 50.2628 62.9807 50.1104C62.8055 49.9592 62.5407 49.883 62.1863 49.883H60.7381L61.2489 49.3359V52.1542ZM63.2575 53.9145L62.0152 52.1114H63.2428L64.4984 53.9145H63.2561H63.2575Z" fill="white"/>
<path d="M66.479 53.9145V51.884L66.7411 52.5796L64.5547 48.9453H65.7756L67.4512 51.7355H66.7491L68.4314 48.9453H69.56L67.3736 52.5796L67.629 51.884V53.9145H66.479Z" fill="white"/>
</svg>
